<svg xmlns="http://www.w3.org/2000/svg" viewBox="0 0 241.02 46"><defs><style>.cls-1{fill:#e2e1d5;}</style></defs><g id="Capa_2" data-name="Capa 2"><g id="Capa_1-2" data-name="Capa 1"><path class="cls-1" d="M0,23,13.35,0H21L7.67,23,21,46H13.35Z"/><path class="cls-1" d="M43.1,28h-2V46h-18V0h18V16h2V0h19V46h-19Z"/><path class="cls-1" d="M103.1,40.58,98,46H65.1V0H98l5.11,5.29ZM83.1,8V38h2V8Z"/><path class="cls-1" d="M105.1,15.47,110.61,10H143.1V25.07l-20,8.25V40h2V34.43l18-7.3v13.4L137.86,46H105.1ZM123.1,26h2V16h-2Z"/><path class="cls-1" d="M170.78,46H155.56L145.1,30.53V10h17V35h2V10h17V29.87Z"/><path class="cls-1" d="M190.94,46h-7.67L209.84,0h7.67Z"/><path class="cls-1" d="M241,23,227.67,46H220l13.35-23L220,0h7.67Z"/></g></g></svg>